<?xml version="1.0" encoding="UTF-8" standalone="no"?>
<!-- Created with Inkscape (http://www.inkscape.org/) -->

<svg
   width="250mm"
   height="123mm"
   viewBox="0 0 250 123"
   version="1.1"
   id="svg5"
   inkscape:version="1.2.2 (b0a8486541, 2022-12-01)"
   sodipodi:docname="Different type of opps.svg"
   xmlns:inkscape="http://www.inkscape.org/namespaces/inkscape"
   xmlns:sodipodi="http://sodipodi.sourceforge.net/DTD/sodipodi-0.dtd"
   xmlns="http://www.w3.org/2000/svg"
   xmlns:svg="http://www.w3.org/2000/svg">
  <sodipodi:namedview
     id="namedview7"
     pagecolor="#ffffff"
     bordercolor="#000000"
     borderopacity="0.25"
     inkscape:showpageshadow="2"
     inkscape:pageopacity="0.0"
     inkscape:pagecheckerboard="0"
     inkscape:deskcolor="#d1d1d1"
     inkscape:document-units="mm"
     showgrid="false"
     inkscape:zoom="1.0544998"
     inkscape:cx="529.16085"
     inkscape:cy="224.75112"
     inkscape:window-width="1920"
     inkscape:window-height="1017"
     inkscape:window-x="1912"
     inkscape:window-y="-8"
     inkscape:window-maximized="1"
     inkscape:current-layer="layer1" />
  <defs
     id="defs2" />
  <g
     inkscape:label="Layer 1"
     inkscape:groupmode="layer"
     id="layer1"
     transform="translate(-5.1488412,-2.5241178)">
    <g
       aria-label="Pocket"
       id="text1732"
       style="font-size:9.74157px;font-family:'Script MT Bold';-inkscape-font-specification:'Script MT Bold, ';text-align:center;text-anchor:middle;fill:none;stroke:#ff0000;stroke-width:0.1;stroke-linecap:round">
      <path
         d="m 39.406938,14.947624 q 0,0.470906 -0.166482,0.87522 -0.161725,0.399556 -0.456636,0.694467 -0.36626,0.36626 -0.865706,0.551769 -0.499446,0.180752 -1.260506,0.180752 h -0.941812 v 2.639927 h -0.941812 v -7.082616 h 1.921677 q 0.637388,0 1.079754,0.109402 0.442367,0.104646 0.784844,0.332964 0.404313,0.271128 0.623118,0.675441 0.223561,0.404313 0.223561,1.022674 z m -0.979865,0.02378 q 0,-0.366261 -0.128429,-0.637388 -0.128429,-0.271128 -0.390043,-0.442367 -0.228318,-0.147455 -0.523229,-0.209291 -0.290154,-0.06659 -0.737277,-0.06659 h -0.932299 v 2.830193 h 0.794357 q 0.570795,0 0.927542,-0.09989 0.356747,-0.104646 0.580308,-0.328208 0.223562,-0.228318 0.313938,-0.480419 0.09513,-0.252101 0.09513,-0.566038 z"
         style="font-family:ubuntu;-inkscape-font-specification:ubuntu"
         id="path5779" />
      <path
         d="m 44.867545,17.235562 q 0,1.298559 -0.665928,2.050106 -0.665927,0.751546 -1.783735,0.751546 -1.12732,0 -1.793248,-0.751546 -0.661171,-0.751547 -0.661171,-2.050106 0,-1.298559 0.661171,-2.050106 0.665928,-0.756304 1.793248,-0.756304 1.117808,0 1.783735,0.756304 0.665928,0.751547 0.665928,2.050106 z m -0.922786,0 q 0,-1.032188 -0.404313,-1.531634 -0.404313,-0.504202 -1.122564,-0.504202 -0.727763,0 -1.132077,0.504202 -0.399556,0.499446 -0.399556,1.531634 0,0.998891 0.404313,1.517363 0.404313,0.513716 1.12732,0.513716 0.713494,0 1.117808,-0.508959 0.409069,-0.513716 0.409069,-1.52212 z"
         style="font-family:ubuntu;-inkscape-font-specification:ubuntu"
         id="path5781" />
      <path
         d="m 50.180697,19.556795 q -0.447123,0.214048 -0.851436,0.332964 -0.399557,0.118916 -0.851437,0.118916 -0.575551,0 -1.055971,-0.166482 -0.480419,-0.171239 -0.822896,-0.513716 -0.347234,-0.342477 -0.537499,-0.865706 -0.190265,-0.523229 -0.190265,-1.222453 0,-1.303315 0.713494,-2.045349 0.718251,-0.742034 1.893137,-0.742034 0.456637,0 0.894246,0.128429 0.442366,0.128429 0.808627,0.313938 v 0.994134 h -0.04757 q -0.409069,-0.318694 -0.846679,-0.489932 -0.432853,-0.171239 -0.84668,-0.171239 -0.76106,0 -1.203426,0.513716 -0.43761,0.508959 -0.43761,1.498337 0,0.960839 0.428097,1.479311 0.432853,0.513716 1.212939,0.513716 0.271128,0 0.551769,-0.07135 0.280641,-0.07135 0.504202,-0.185508 0.195022,-0.09989 0.366261,-0.209292 0.171238,-0.114159 0.271127,-0.195021 h 0.04757 z"
         style="font-family:ubuntu;-inkscape-font-specification:ubuntu"
         id="path5783" />
      <path
         d="m 56.150263,19.889759 h -1.179644 l -2.130968,-2.32599 -0.580309,0.551768 v 1.774222 h -0.894245 v -7.40131 h 0.894245 v 4.747113 l 2.582848,-2.658954 h 1.127321 l -2.468689,2.454419 z"
         style="font-family:ubuntu;-inkscape-font-specification:ubuntu"
         id="path5785" />
      <path
         d="m 61.444388,17.325938 h -3.914703 q 0,0.489932 0.147455,0.856192 0.147456,0.361504 0.404313,0.594579 0.247345,0.228318 0.585065,0.342477 0.342477,0.114159 0.751547,0.114159 0.542256,0 1.089268,-0.214049 0.551768,-0.218804 0.784843,-0.428096 h 0.04757 v 0.975108 q -0.451879,0.190266 -0.922785,0.318694 -0.470906,0.128429 -0.989378,0.128429 -1.322342,0 -2.064376,-0.713494 -0.742034,-0.71825 -0.742034,-2.035836 0,-1.303315 0.708737,-2.069132 0.713494,-0.765817 1.874111,-0.765817 1.074998,0 1.655306,0.627875 0.585065,0.627874 0.585065,1.783735 z m -0.870462,-0.684955 q -0.0048,-0.70398 -0.356747,-1.089267 -0.347234,-0.385287 -1.060728,-0.385287 -0.718251,0 -1.146347,0.42334 -0.42334,0.42334 -0.480419,1.051214 z"
         style="font-family:ubuntu;-inkscape-font-specification:ubuntu"
         id="path5787" />
      <path
         d="m 65.558869,19.842193 q -0.252101,0.06659 -0.551768,0.109402 -0.294911,0.04281 -0.527986,0.04281 -0.813383,0 -1.236723,-0.43761 -0.423339,-0.437609 -0.423339,-1.403205 v -2.825435 h -0.604092 v -0.751547 h 0.604092 v -1.526877 h 0.894245 v 1.526877 h 1.845571 v 0.751547 h -1.845571 v 2.421122 q 0,0.418583 0.01903,0.656415 0.01903,0.233074 0.133185,0.437609 0.104646,0.190265 0.285398,0.280641 0.185508,0.08562 0.561282,0.08562 0.218805,0 0.456636,-0.06184 0.237831,-0.06659 0.342477,-0.109402 h 0.04757 z"
         style="font-family:ubuntu;-inkscape-font-specification:ubuntu"
         id="path5789" />
    </g>
    <rect
       style="fill:none;stroke:#ff0000;stroke-width:0.1;stroke-linecap:round;stroke-linejoin:miter;stroke-dasharray:none"
       id="rect234"
       width="28.886053"
       height="28.886055"
       x="15.549688"
       y="30.087942" />
    <path
       sodipodi:type="star"
       style="fill:none;stroke:#ff0000;stroke-width:0.0917184;stroke-linecap:round;stroke-linejoin:miter;stroke-dasharray:none"
       id="path1838"
       inkscape:flatsided="false"
       sodipodi:sides="5"
       sodipodi:cx="55.532257"
       sodipodi:cy="135.72581"
       sodipodi:r1="13.335988"
       sodipodi:r2="6.667994"
       sodipodi:arg1="-1.5707963"
       sodipodi:arg2="-0.9424778"
       inkscape:rounded="0"
       inkscape:randomized="0"
       d="m 55.532257,122.38983 3.919349,7.94146 8.76393,1.27348 -6.34164,6.18157 1.497058,8.72852 -7.838697,-4.12105 -7.838697,4.12105 1.497058,-8.72852 -6.341639,-6.18157 8.76393,-1.27348 z"
       inkscape:transform-center-y="-1.3884568"
       transform="matrix(1.0902939,0,0,1.0902939,9.446232,-101.94398)"
       inkscape:transform-center-x="-2.4807752e-06" />
    <g
       aria-label="Profile inside"
       id="text1853"
       style="font-size:9.74155px;font-family:'Script MT Bold';-inkscape-font-specification:'Script MT Bold, ';text-align:center;text-anchor:middle;fill:none;stroke:#ff0000;stroke-width:0.0999998;stroke-linecap:round">
      <path
         d="m 104.08164,14.947717 q 0,0.470905 -0.16648,0.875217 -0.16173,0.399556 -0.45664,0.694466 -0.36626,0.366259 -0.8657,0.551768 -0.49945,0.180751 -1.26051,0.180751 h -0.94181 v 2.639922 h -0.941807 v -7.082602 h 1.921677 q 0.63738,0 1.07975,0.109402 0.44236,0.104646 0.78484,0.332964 0.40431,0.271127 0.62312,0.675439 0.22356,0.404312 0.22356,1.022673 z m -0.97987,0.02378 q 0,-0.36626 -0.12842,-0.637387 -0.12843,-0.271127 -0.39005,-0.442365 -0.22831,-0.147455 -0.52322,-0.209291 -0.29016,-0.06659 -0.73728,-0.06659 h -0.9323 v 2.830187 h 0.79436 q 0.57079,0 0.92754,-0.09989 0.35674,-0.104646 0.58031,-0.328207 0.22356,-0.228317 0.31393,-0.480418 0.0951,-0.252101 0.0951,-0.566037 z"
         style="font-family:ubuntu;-inkscape-font-specification:ubuntu"
         id="path5792" />
      <path
         d="m 108.56713,15.551807 h -0.0476 q -0.19978,-0.04757 -0.39004,-0.06659 -0.18551,-0.02378 -0.44237,-0.02378 -0.41382,0 -0.79911,0.185508 -0.38529,0.180752 -0.74203,0.470905 v 3.771997 h -0.89425 v -5.31314 h 0.89425 v 0.784841 q 0.53274,-0.428095 0.93705,-0.60409 0.40907,-0.180751 0.83241,-0.180751 0.23307,0 0.33772,0.01427 0.10464,0.0095 0.31394,0.04281 z"
         style="font-family:ubuntu;-inkscape-font-specification:ubuntu"
         id="path5794" />
      <path
         d="m 113.93735,17.235649 q 0,1.298556 -0.66593,2.050102 -0.66593,0.751545 -1.78373,0.751545 -1.12732,0 -1.79325,-0.751545 -0.66117,-0.751546 -0.66117,-2.050102 0,-1.298556 0.66117,-2.050102 0.66593,-0.756302 1.79325,-0.756302 1.1178,0 1.78373,0.756302 0.66593,0.751546 0.66593,2.050102 z m -0.92279,0 q 0,-1.032186 -0.40431,-1.53163 -0.40431,-0.504202 -1.12256,-0.504202 -0.72776,0 -1.13208,0.504202 -0.39955,0.499444 -0.39955,1.53163 0,0.99889 0.40431,1.517361 0.40431,0.513714 1.12732,0.513714 0.71349,0 1.1178,-0.508958 0.40907,-0.513714 0.40907,-1.522117 z"
         style="font-family:ubuntu;-inkscape-font-specification:ubuntu"
         id="path5796" />
      <path
         d="m 118.18025,13.35425 h -0.0476 q -0.14745,-0.04281 -0.38528,-0.08562 -0.23784,-0.04757 -0.41859,-0.04757 -0.57555,0 -0.83716,0.256857 -0.25686,0.252101 -0.25686,0.918027 v 0.180752 h 1.61249 v 0.751545 h -1.58395 v 4.561595 h -0.89424 V 15.328246 H 114.765 v -0.751545 h 0.60409 v -0.175995 q 0,-0.946567 0.4709,-1.450768 0.47091,-0.508958 1.36039,-0.508958 0.29967,0 0.5375,0.02854 0.24259,0.02854 0.44237,0.06659 z"
         style="font-family:ubuntu;-inkscape-font-specification:ubuntu"
         id="path5798" />
      <path
         d="m 119.70712,13.687213 h -1.0084 v -0.92754 h 1.0084 z m -0.0571,6.202628 h -0.89424 v -5.31314 h 0.89424 z"
         style="font-family:ubuntu;-inkscape-font-specification:ubuntu"
         id="path5800" />
      <path
         d="m 122.32326,19.889841 h -0.89424 v -7.401295 h 0.89424 z"
         style="font-family:ubuntu;-inkscape-font-specification:ubuntu"
         id="path5802" />
      <path
         d="m 128.54016,17.326025 h -3.9147 q 0,0.489931 0.14746,0.856191 0.14745,0.361503 0.40431,0.594577 0.24735,0.228317 0.58507,0.342476 0.34247,0.114159 0.75154,0.114159 0.54226,0 1.08927,-0.214048 0.55176,-0.218804 0.78484,-0.428095 h 0.0476 v 0.975106 q -0.45187,0.190265 -0.92278,0.318693 -0.4709,0.128429 -0.98938,0.128429 -1.32234,0 -2.06437,-0.713492 -0.74203,-0.718249 -0.74203,-2.035832 0,-1.303313 0.70874,-2.069128 0.71349,-0.765816 1.8741,-0.765816 1.075,0 1.65531,0.627874 0.58506,0.627873 0.58506,1.783731 z m -0.87046,-0.684953 q -0.005,-0.703979 -0.35675,-1.089265 -0.34723,-0.385286 -1.06072,-0.385286 -0.71825,0 -1.14635,0.423339 -0.42334,0.423339 -0.48042,1.051212 z"
         style="font-family:ubuntu;-inkscape-font-specification:ubuntu"
         id="path5804" />
      <path
         d="m 134.28139,13.687213 h -1.0084 v -0.92754 h 1.0084 z m -0.0571,6.202628 h -0.89424 v -5.31314 h 0.89424 z"
         style="font-family:ubuntu;-inkscape-font-specification:ubuntu"
         id="path5806" />
      <path
         d="m 140.43646,19.889841 h -0.89425 v -3.025208 q 0,-0.366259 -0.0428,-0.684953 -0.0428,-0.32345 -0.15697,-0.504201 -0.11891,-0.199778 -0.34247,-0.29491 -0.22356,-0.09989 -0.58031,-0.09989 -0.36626,0 -0.76582,0.180751 -0.39955,0.180752 -0.76581,0.461392 v 3.967018 h -0.89424 v -5.31314 h 0.89424 v 0.58982 q 0.41858,-0.347233 0.8657,-0.542254 0.44713,-0.195022 0.91803,-0.195022 0.86095,0 1.31283,0.518472 0.45188,0.518471 0.45188,1.493577 z"
         style="font-family:ubuntu;-inkscape-font-specification:ubuntu"
         id="path5808" />
      <path
         d="m 145.95413,18.358211 q 0,0.727762 -0.60409,1.19391 -0.59933,0.466149 -1.64103,0.466149 -0.58982,0 -1.08451,-0.137942 -0.48993,-0.142699 -0.82289,-0.30918 v -1.003646 h 0.0476 q 0.42334,0.318693 0.94181,0.508958 0.51847,0.185508 0.99414,0.185508 0.58982,0 0.92278,-0.190265 0.33296,-0.190265 0.33296,-0.599334 0,-0.313936 -0.18075,-0.475661 -0.18075,-0.161725 -0.69446,-0.275884 -0.19027,-0.04281 -0.49945,-0.09989 -0.30442,-0.05708 -0.55652,-0.123672 -0.69923,-0.185508 -0.99414,-0.542254 -0.29015,-0.361503 -0.29015,-0.884731 0,-0.328206 0.13319,-0.61836 0.13794,-0.290154 0.41382,-0.518471 0.26637,-0.223561 0.67544,-0.35199 0.41383,-0.133185 0.92278,-0.133185 0.47567,0 0.96084,0.118915 0.48993,0.114159 0.81338,0.280641 v 0.95608 h -0.0476 q -0.34248,-0.252101 -0.83241,-0.423339 -0.48993,-0.175995 -0.96084,-0.175995 -0.48993,0 -0.82765,0.190265 -0.33772,0.185508 -0.33772,0.556524 0,0.328206 0.20453,0.494688 0.19978,0.166481 0.6469,0.271127 0.24735,0.05708 0.55177,0.114159 0.30918,0.05708 0.51372,0.104645 0.62311,0.142699 0.96083,0.489932 0.33772,0.351989 0.33772,0.932297 z"
         style="font-family:ubuntu;-inkscape-font-specification:ubuntu"
         id="path5810" />
      <path
         d="m 148.1945,13.687213 h -1.0084 v -0.92754 h 1.0084 z m -0.0571,6.202628 h -0.89424 v -5.31314 h 0.89424 z"
         style="font-family:ubuntu;-inkscape-font-specification:ubuntu"
         id="path5812" />
      <path
         d="m 154.21638,19.889841 h -0.89425 v -0.556524 q -0.38528,0.332963 -0.80387,0.518471 -0.41858,0.185508 -0.90851,0.185508 -0.95132,0 -1.5126,-0.732519 -0.55653,-0.732519 -0.55653,-2.031075 0,-0.675439 0.19027,-1.203424 0.19502,-0.527984 0.52322,-0.899 0.32345,-0.361503 0.75155,-0.551768 0.43285,-0.190265 0.89424,-0.190265 0.41859,0 0.74203,0.09038 0.32345,0.08562 0.6802,0.271127 v -2.302202 h 0.89425 z m -0.89425,-1.308069 V 15.53278 q -0.3615,-0.161725 -0.6469,-0.223561 -0.2854,-0.06184 -0.62312,-0.06184 -0.75154,0 -1.17012,0.523228 -0.41859,0.523228 -0.41859,1.484065 0,0.946566 0.32345,1.441254 0.32345,0.489932 1.03695,0.489932 0.38053,0 0.77057,-0.166482 0.39004,-0.171238 0.72776,-0.437608 z"
         style="font-family:ubuntu;-inkscape-font-specification:ubuntu"
         id="path5814" />
      <path
         d="m 160.42376,17.326025 h -3.9147 q 0,0.489931 0.14746,0.856191 0.14745,0.361503 0.40431,0.594577 0.24735,0.228317 0.58507,0.342476 0.34247,0.114159 0.75154,0.114159 0.54226,0 1.08927,-0.214048 0.55176,-0.218804 0.78484,-0.428095 h 0.0476 v 0.975106 q -0.45187,0.190265 -0.92278,0.318693 -0.4709,0.128429 -0.98938,0.128429 -1.32234,0 -2.06437,-0.713492 -0.74203,-0.718249 -0.74203,-2.035832 0,-1.303313 0.70874,-2.069128 0.71349,-0.765816 1.8741,-0.765816 1.075,0 1.65531,0.627874 0.58506,0.627873 0.58506,1.783731 z m -0.87046,-0.684953 q -0.005,-0.703979 -0.35675,-1.089265 -0.34723,-0.385286 -1.06072,-0.385286 -0.71825,0 -1.14635,0.423339 -0.42334,0.423339 -0.48042,1.051212 z"
         style="font-family:ubuntu;-inkscape-font-specification:ubuntu"
         id="path5816" />
    </g>
    <rect
       style="fill:none;stroke:#ff0000;stroke-width:0.0999998;stroke-linecap:round;stroke-linejoin:miter;stroke-dasharray:none"
       id="rect1855"
       width="28.88595"
       height="28.886055"
       x="95.457321"
       y="30.08806" />
    <path
       sodipodi:type="star"
       style="fill:none;stroke:#ff0000;stroke-width:0.0917184;stroke-linecap:round;stroke-linejoin:miter;stroke-dasharray:none"
       id="path1857"
       inkscape:flatsided="false"
       sodipodi:sides="5"
       sodipodi:cx="55.532257"
       sodipodi:cy="135.72581"
       sodipodi:r1="13.335988"
       sodipodi:r2="6.667994"
       sodipodi:arg1="-1.5707963"
       sodipodi:arg2="-0.9424778"
       inkscape:rounded="0"
       inkscape:randomized="0"
       d="m 55.532257,122.38983 3.919349,7.94146 8.76393,1.27348 -6.34164,6.18157 1.497058,8.72852 -7.838697,-4.12105 -7.838697,4.12105 1.497058,-8.72852 -6.341639,-6.18157 8.76393,-1.27348 z"
       inkscape:transform-center-y="-1.3884568"
       transform="matrix(1.09029,0,0,1.0902939,89.35389,-101.94386)"
       inkscape:transform-center-x="-2.4807752e-06" />
    <g
       aria-label="Profile Outside"
       id="text1865"
       style="font-size:9.74155px;font-family:'Script MT Bold';-inkscape-font-specification:'Script MT Bold, ';text-align:center;text-anchor:middle;fill:none;stroke:#ff0000;stroke-width:0.0999998;stroke-linecap:round">
      <path
         d="m 179.57326,14.947717 q 0,0.470905 -0.16648,0.875217 -0.16173,0.399556 -0.45664,0.694466 -0.36626,0.366259 -0.8657,0.551768 -0.49944,0.180751 -1.2605,0.180751 h -0.94181 v 2.639922 h -0.94181 v -7.082602 h 1.92167 q 0.63739,0 1.07975,0.109402 0.44237,0.104646 0.78484,0.332964 0.40432,0.271127 0.62312,0.675439 0.22356,0.404312 0.22356,1.022673 z m -0.97986,0.02378 q 0,-0.36626 -0.12843,-0.637387 -0.12843,-0.271127 -0.39004,-0.442365 -0.22832,-0.147455 -0.52323,-0.209291 -0.29015,-0.06659 -0.73728,-0.06659 h -0.93229 v 2.830187 h 0.79435 q 0.5708,0 0.92754,-0.09989 0.35675,-0.104646 0.58031,-0.328207 0.22356,-0.228317 0.31394,-0.480418 0.0951,-0.252101 0.0951,-0.566037 z"
         style="font-family:ubuntu;-inkscape-font-specification:ubuntu"
         id="path5819" />
      <path
         d="m 184.05875,15.551807 h -0.0476 q -0.19977,-0.04757 -0.39004,-0.06659 -0.18551,-0.02378 -0.44236,-0.02378 -0.41383,0 -0.79912,0.185508 -0.38528,0.180752 -0.74203,0.470905 v 3.771997 h -0.89424 v -5.31314 h 0.89424 v 0.784841 q 0.53274,-0.428095 0.93706,-0.60409 0.40906,-0.180751 0.8324,-0.180751 0.23308,0 0.33772,0.01427 0.10465,0.0095 0.31394,0.04281 z"
         style="font-family:ubuntu;-inkscape-font-specification:ubuntu"
         id="path5821" />
      <path
         d="m 189.42897,17.235649 q 0,1.298556 -0.66593,2.050102 -0.66592,0.751545 -1.78373,0.751545 -1.12732,0 -1.79324,-0.751545 -0.66117,-0.751546 -0.66117,-2.050102 0,-1.298556 0.66117,-2.050102 0.66592,-0.756302 1.79324,-0.756302 1.11781,0 1.78373,0.756302 0.66593,0.751546 0.66593,2.050102 z m -0.92278,0 q 0,-1.032186 -0.40432,-1.53163 -0.40431,-0.504202 -1.12256,-0.504202 -0.72776,0 -1.13207,0.504202 -0.39956,0.499444 -0.39956,1.53163 0,0.99889 0.40431,1.517361 0.40432,0.513714 1.12732,0.513714 0.71349,0 1.11781,-0.508958 0.40907,-0.513714 0.40907,-1.522117 z"
         style="font-family:ubuntu;-inkscape-font-specification:ubuntu"
         id="path5823" />
      <path
         d="m 193.67187,13.35425 h -0.0476 q -0.14746,-0.04281 -0.38529,-0.08562 -0.23783,-0.04757 -0.41858,-0.04757 -0.57555,0 -0.83717,0.256857 -0.25685,0.252101 -0.25685,0.918027 v 0.180752 h 1.61249 v 0.751545 h -1.58396 v 4.561595 h -0.89424 v -4.561595 h -0.60409 v -0.751545 h 0.60409 v -0.175995 q 0,-0.946567 0.47091,-1.450768 0.4709,-0.508958 1.36039,-0.508958 0.29967,0 0.5375,0.02854 0.24258,0.02854 0.44236,0.06659 z"
         style="font-family:ubuntu;-inkscape-font-specification:ubuntu"
         id="path5825" />
      <path
         d="m 195.19875,13.687213 h -1.00841 v -0.92754 h 1.00841 z m -0.0571,6.202628 h -0.89425 v -5.31314 h 0.89425 z"
         style="font-family:ubuntu;-inkscape-font-specification:ubuntu"
         id="path5827" />
      <path
         d="m 197.81488,19.889841 h -0.89424 v -7.401295 h 0.89424 z"
         style="font-family:ubuntu;-inkscape-font-specification:ubuntu"
         id="path5829" />
      <path
         d="m 204.03178,17.326025 h -3.91469 q 0,0.489931 0.14745,0.856191 0.14746,0.361503 0.40432,0.594577 0.24734,0.228317 0.58506,0.342476 0.34248,0.114159 0.75154,0.114159 0.54226,0 1.08927,-0.214048 0.55177,-0.218804 0.78484,-0.428095 h 0.0476 v 0.975106 q -0.45188,0.190265 -0.92279,0.318693 -0.4709,0.128429 -0.98937,0.128429 -1.32234,0 -2.06437,-0.713492 -0.74204,-0.718249 -0.74204,-2.035832 0,-1.303313 0.70874,-2.069128 0.71349,-0.765816 1.87411,-0.765816 1.07499,0 1.6553,0.627874 0.58506,0.627873 0.58506,1.783731 z m -0.87046,-0.684953 q -0.005,-0.703979 -0.35674,-1.089265 -0.34724,-0.385286 -1.06073,-0.385286 -0.71825,0 -1.14634,0.423339 -0.42334,0.423339 -0.48042,1.051212 z"
         style="font-family:ubuntu;-inkscape-font-specification:ubuntu"
         id="path5831" />
      <path
         d="m 214.16337,13.620621 q 0.43286,0.475661 0.66117,1.165371 0.23308,0.689709 0.23308,1.564926 0,0.875218 -0.23783,1.569684 -0.23308,0.689709 -0.65642,1.151101 -0.4376,0.480418 -1.03694,0.723006 -0.59457,0.242587 -1.36039,0.242587 -0.74679,0 -1.36039,-0.247344 -0.60885,-0.247344 -1.03694,-0.718249 -0.4281,-0.470905 -0.66117,-1.155858 -0.22832,-0.684953 -0.22832,-1.564927 0,-0.865704 0.22832,-1.550656 0.22831,-0.68971 0.66592,-1.179641 0.41858,-0.466149 1.03694,-0.713493 0.62312,-0.247344 1.35564,-0.247344 0.76106,0 1.36515,0.252101 0.60885,0.247344 1.03218,0.708736 z m -0.0856,2.730297 q 0,-1.379418 -0.61836,-2.126207 -0.61836,-0.751545 -1.6886,-0.751545 -1.07976,0 -1.69812,0.751545 -0.6136,0.746789 -0.6136,2.126207 0,1.393689 0.62787,2.135721 0.62788,0.737276 1.68385,0.737276 1.05597,0 1.67908,-0.737276 0.62788,-0.742032 0.62788,-2.135721 z"
         style="font-family:ubuntu;-inkscape-font-specification:ubuntu"
         id="path5833" />
      <path
         d="m 220.88448,19.889841 h -0.89425 v -0.58982 q -0.45188,0.356746 -0.8657,0.547011 -0.41383,0.190264 -0.91327,0.190264 -0.83717,0 -1.30332,-0.508958 -0.46614,-0.513714 -0.46614,-1.503091 v -3.448546 h 0.89424 v 3.025208 q 0,0.404312 0.038,0.694466 0.0381,0.285397 0.16173,0.489931 0.12843,0.209291 0.33296,0.304424 0.20454,0.09513 0.59458,0.09513 0.34723,0 0.7563,-0.180752 0.41383,-0.180751 0.77057,-0.461391 v -3.967018 h 0.89425 z"
         style="font-family:ubuntu;-inkscape-font-specification:ubuntu"
         id="path5835" />
      <path
         d="m 225.40326,19.842275 q -0.2521,0.06659 -0.55177,0.109402 -0.29491,0.04281 -0.52798,0.04281 -0.81338,0 -1.23672,-0.437609 -0.42334,-0.437609 -0.42334,-1.403202 v -2.82543 h -0.60409 v -0.751545 h 0.60409 v -1.526874 h 0.89424 v 1.526874 h 1.84557 v 0.751545 h -1.84557 v 2.421118 q 0,0.418582 0.019,0.656413 0.019,0.233074 0.13318,0.437608 0.10465,0.190265 0.2854,0.280641 0.18551,0.08562 0.56128,0.08562 0.21881,0 0.45664,-0.06184 0.23783,-0.06659 0.34247,-0.109402 h 0.0476 z"
         style="font-family:ubuntu;-inkscape-font-specification:ubuntu"
         id="path5837" />
      <path
         d="m 230.27879,18.358211 q 0,0.727762 -0.60409,1.19391 -0.59933,0.466149 -1.64103,0.466149 -0.58982,0 -1.08451,-0.137942 -0.48993,-0.142699 -0.82289,-0.30918 v -1.003646 h 0.0476 q 0.42334,0.318693 0.94181,0.508958 0.51847,0.185508 0.99413,0.185508 0.58982,0 0.92279,-0.190265 0.33296,-0.190265 0.33296,-0.599334 0,-0.313936 -0.18075,-0.475661 -0.18075,-0.161725 -0.69447,-0.275884 -0.19026,-0.04281 -0.49944,-0.09989 -0.30442,-0.05708 -0.55653,-0.123672 -0.69922,-0.185508 -0.99413,-0.542254 -0.29015,-0.361503 -0.29015,-0.884731 0,-0.328206 0.13318,-0.61836 0.13795,-0.290154 0.41383,-0.518471 0.26637,-0.223561 0.67544,-0.35199 0.41382,-0.133185 0.92278,-0.133185 0.47566,0 0.96084,0.118915 0.48993,0.114159 0.81338,0.280641 v 0.95608 h -0.0476 q -0.34247,-0.252101 -0.8324,-0.423339 -0.48994,-0.175995 -0.96084,-0.175995 -0.48993,0 -0.82765,0.190265 -0.33772,0.185508 -0.33772,0.556524 0,0.328206 0.20453,0.494688 0.19978,0.166481 0.6469,0.271127 0.24735,0.05708 0.55177,0.114159 0.30918,0.05708 0.51371,0.104645 0.62312,0.142699 0.96084,0.489932 0.33772,0.351989 0.33772,0.932297 z"
         style="font-family:ubuntu;-inkscape-font-specification:ubuntu"
         id="path5839" />
      <path
         d="m 232.51916,13.687213 h -1.00841 v -0.92754 h 1.00841 z m -0.0571,6.202628 h -0.89425 v -5.31314 h 0.89425 z"
         style="font-family:ubuntu;-inkscape-font-specification:ubuntu"
         id="path5841" />
      <path
         d="m 238.54103,19.889841 h -0.89424 v -0.556524 q -0.38529,0.332963 -0.80387,0.518471 -0.41858,0.185508 -0.90851,0.185508 -0.95133,0 -1.51261,-0.732519 -0.55652,-0.732519 -0.55652,-2.031075 0,-0.675439 0.19026,-1.203424 0.19503,-0.527984 0.52323,-0.899 0.32345,-0.361503 0.75155,-0.551768 0.43285,-0.190265 0.89424,-0.190265 0.41858,0 0.74203,0.09038 0.32345,0.08562 0.6802,0.271127 v -2.302202 h 0.89424 z m -0.89424,-1.308069 V 15.53278 q -0.3615,-0.161725 -0.6469,-0.223561 -0.2854,-0.06184 -0.62312,-0.06184 -0.75154,0 -1.17012,0.523228 -0.41859,0.523228 -0.41859,1.484065 0,0.946566 0.32345,1.441254 0.32345,0.489932 1.03695,0.489932 0.38052,0 0.77057,-0.166482 0.39004,-0.171238 0.72776,-0.437608 z"
         style="font-family:ubuntu;-inkscape-font-specification:ubuntu"
         id="path5843" />
      <path
         d="m 244.74842,17.326025 h -3.9147 q 0,0.489931 0.14746,0.856191 0.14745,0.361503 0.40431,0.594577 0.24734,0.228317 0.58506,0.342476 0.34248,0.114159 0.75155,0.114159 0.54225,0 1.08926,-0.214048 0.55177,-0.218804 0.78485,-0.428095 h 0.0476 v 0.975106 q -0.45188,0.190265 -0.92278,0.318693 -0.47091,0.128429 -0.98938,0.128429 -1.32234,0 -2.06437,-0.713492 -0.74203,-0.718249 -0.74203,-2.035832 0,-1.303313 0.70873,-2.069128 0.7135,-0.765816 1.87411,-0.765816 1.075,0 1.6553,0.627874 0.58507,0.627873 0.58507,1.783731 z m -0.87046,-0.684953 q -0.005,-0.703979 -0.35675,-1.089265 -0.34723,-0.385286 -1.06072,-0.385286 -0.71825,0 -1.14635,0.423339 -0.42334,0.423339 -0.48042,1.051212 z"
         style="font-family:ubuntu;-inkscape-font-specification:ubuntu"
         id="path5845" />
    </g>
    <rect
       style="fill:none;stroke:#ff0000;stroke-width:0.0999998;stroke-linecap:round;stroke-linejoin:miter;stroke-dasharray:none"
       id="rect1867"
       width="28.88595"
       height="28.886055"
       x="175.36533"
       y="30.08806" />
    <path
       sodipodi:type="star"
       style="fill:none;stroke:#ff0000;stroke-width:0.0917184;stroke-linecap:round;stroke-linejoin:miter;stroke-dasharray:none"
       id="path1869"
       inkscape:flatsided="false"
       sodipodi:sides="5"
       sodipodi:cx="55.532257"
       sodipodi:cy="135.72581"
       sodipodi:r1="13.335988"
       sodipodi:r2="6.667994"
       sodipodi:arg1="-1.5707963"
       sodipodi:arg2="-0.9424778"
       inkscape:rounded="0"
       inkscape:randomized="0"
       d="m 55.532257,122.38983 3.919349,7.94146 8.76393,1.27348 -6.34164,6.18157 1.497058,8.72852 -7.838697,-4.12105 -7.838697,4.12105 1.497058,-8.72852 -6.341639,-6.18157 8.76393,-1.27348 z"
       inkscape:transform-center-y="-1.3884568"
       transform="matrix(1.09029,0,0,1.0902939,169.26189,-101.94386)"
       inkscape:transform-center-x="-2.4807752e-06" />
    <g
       aria-label="Engrave"
       id="text1903"
       style="font-size:9.74157px;font-family:'Script MT Bold';-inkscape-font-specification:'Script MT Bold, ';text-align:center;text-anchor:middle;fill:none;stroke:#ff0000;stroke-width:0.1;stroke-linecap:round">
      <path
         d="m 35.589746,76.522881 h -4.666251 v -7.082617 h 4.666251 v 0.837166 h -3.724439 v 1.940704 h 3.724439 V 73.0553 h -3.724439 v 2.630414 h 3.724439 z"
         style="font-family:ubuntu;-inkscape-font-specification:ubuntu"
         id="path5848" />
      <path
         d="M 41.454666,76.522881 H 40.56042 v -3.025215 q 0,-0.36626 -0.04281,-0.684954 -0.04281,-0.32345 -0.156969,-0.504202 -0.118916,-0.199779 -0.342477,-0.294911 -0.223562,-0.09989 -0.580309,-0.09989 -0.36626,0 -0.765816,0.180752 -0.399557,0.180751 -0.765817,0.461392 v 3.967027 h -0.894246 v -5.313152 h 0.894246 v 0.589822 q 0.418583,-0.347234 0.865706,-0.542256 0.447123,-0.195021 0.918029,-0.195021 0.860949,0 1.312828,0.518472 0.45188,0.518472 0.45188,1.493581 z"
         style="font-family:ubuntu;-inkscape-font-specification:ubuntu"
         id="path5850" />
      <path
         d="m 47.486068,75.918789 q 0,1.350882 -0.613604,1.983513 -0.613605,0.632631 -1.888381,0.632631 -0.42334,0 -0.827653,-0.06184 -0.399557,-0.05708 -0.7896,-0.166482 v -0.913272 h 0.04757 q 0.218805,0.08562 0.694468,0.209292 0.475662,0.128429 0.951325,0.128429 0.456636,0 0.756304,-0.109403 0.299667,-0.109402 0.466149,-0.304424 0.166482,-0.185508 0.237831,-0.447123 0.07135,-0.261614 0.07135,-0.585065 v -0.485176 q -0.404314,0.323451 -0.77533,0.485176 -0.366261,0.156969 -0.937056,0.156969 -0.951325,0 -1.512607,-0.684954 -0.556525,-0.689711 -0.556525,-1.940704 0,-0.684954 0.190265,-1.179643 0.195022,-0.499446 0.527985,-0.860949 0.309181,-0.337721 0.751547,-0.523229 0.442367,-0.190265 0.879976,-0.190265 0.461393,0 0.770574,0.09513 0.313937,0.09038 0.661171,0.280641 l 0.05708,-0.228318 h 0.837166 z m -0.894245,-0.856193 v -2.896785 q -0.356747,-0.161725 -0.665928,-0.228318 -0.304424,-0.07135 -0.608848,-0.07135 -0.737277,0 -1.160617,0.49469 -0.42334,0.494689 -0.42334,1.436501 0,0.894245 0.313938,1.355638 0.313937,0.461393 1.041701,0.461393 0.390043,0 0.780086,-0.147455 0.3948,-0.152213 0.723008,-0.404314 z"
         style="font-family:ubuntu;-inkscape-font-specification:ubuntu"
         id="path5852" />
      <path
         d="m 52.561388,72.184837 h -0.04757 q -0.199778,-0.04757 -0.390043,-0.06659 -0.185508,-0.02378 -0.442366,-0.02378 -0.413827,0 -0.799113,0.185508 -0.385287,0.180752 -0.742034,0.470906 v 3.772005 h -0.894246 v -5.313152 h 0.894246 v 0.784843 q 0.532742,-0.428096 0.937055,-0.604091 0.40907,-0.180752 0.83241,-0.180752 0.233075,0 0.33772,0.01427 0.104646,0.0095 0.313938,0.04281 z"
         style="font-family:ubuntu;-inkscape-font-specification:ubuntu"
         id="path5854" />
      <path
         d="m 57.360824,76.522881 h -0.889489 v -0.566039 q -0.118916,0.08086 -0.32345,0.228318 -0.199779,0.142699 -0.390044,0.228318 -0.223561,0.109403 -0.513715,0.180752 -0.290155,0.07611 -0.680198,0.07611 -0.718251,0 -1.217696,-0.475663 -0.499446,-0.475662 -0.499446,-1.212939 0,-0.604092 0.256858,-0.975109 0.261614,-0.375773 0.742033,-0.589821 0.485176,-0.214049 1.165374,-0.290155 0.680197,-0.07611 1.460284,-0.114159 v -0.137942 q 0,-0.304424 -0.109402,-0.504202 -0.104646,-0.199778 -0.304424,-0.313937 -0.190265,-0.109403 -0.456636,-0.147456 -0.266372,-0.03805 -0.556526,-0.03805 -0.35199,0 -0.784843,0.09513 -0.432853,0.09038 -0.894246,0.266371 h -0.04757 v -0.908516 q 0.261614,-0.07135 0.756304,-0.156969 0.494689,-0.08562 0.975108,-0.08562 0.561282,0 0.975108,0.09513 0.418583,0.09038 0.723007,0.313937 0.299668,0.218805 0.456637,0.566039 0.156968,0.347233 0.156968,0.860949 z m -0.889489,-1.308073 v -1.47931 q -0.40907,0.02378 -0.965595,0.07135 -0.551769,0.04757 -0.875219,0.137942 -0.385287,0.109403 -0.623118,0.342477 -0.237832,0.228318 -0.237832,0.632632 0,0.456636 0.275885,0.68971 0.275884,0.228318 0.841923,0.228318 0.470906,0 0.860949,-0.180751 0.390043,-0.185509 0.723007,-0.442367 z"
         style="font-family:ubuntu;-inkscape-font-specification:ubuntu"
         id="path5856" />
      <path
         d="m 63.601517,71.209729 -2.149995,5.313152 H 60.55252 l -2.135725,-5.313152 h 0.970352 l 1.645792,4.228641 1.631523,-4.228641 z"
         style="font-family:ubuntu;-inkscape-font-specification:ubuntu"
         id="path5858" />
      <path
         d="m 69.133473,73.959059 h -3.914704 q 0,0.489933 0.147456,0.856193 0.147455,0.361503 0.404313,0.594578 0.247345,0.228318 0.585065,0.342477 0.342477,0.114159 0.751547,0.114159 0.542255,0 1.089268,-0.214048 0.551768,-0.218805 0.784843,-0.428096 h 0.04757 v 0.975108 q -0.451879,0.190265 -0.922785,0.318694 -0.470906,0.128429 -0.989379,0.128429 -1.322342,0 -2.064375,-0.713494 -0.742034,-0.718251 -0.742034,-2.035836 0,-1.303316 0.708737,-2.069133 0.713494,-0.765816 1.874111,-0.765816 1.074997,0 1.655306,0.627874 0.585065,0.627875 0.585065,1.783735 z M 68.26301,73.274105 q -0.0048,-0.703981 -0.356747,-1.089268 -0.347233,-0.385286 -1.060727,-0.385286 -0.718251,0 -1.146347,0.423339 -0.42334,0.42334 -0.48042,1.051215 z"
         style="font-family:ubuntu;-inkscape-font-specification:ubuntu"
         id="path5860" />
    </g>
    <rect
       style="fill:none;stroke:#ff0000;stroke-width:0.1;stroke-linecap:round;stroke-linejoin:miter;stroke-dasharray:none"
       id="rect1905"
       width="28.886053"
       height="28.886055"
       x="15.549688"
       y="86.721062" />
    <path
       sodipodi:type="star"
       style="fill:none;stroke:#ff0000;stroke-width:0.0917184;stroke-linecap:round;stroke-linejoin:miter;stroke-dasharray:none"
       id="path1907"
       inkscape:flatsided="false"
       sodipodi:sides="5"
       sodipodi:cx="55.532257"
       sodipodi:cy="135.72581"
       sodipodi:r1="13.335988"
       sodipodi:r2="6.667994"
       sodipodi:arg1="-1.5707963"
       sodipodi:arg2="-0.9424778"
       inkscape:rounded="0"
       inkscape:randomized="0"
       d="m 55.532257,122.38983 3.919349,7.94146 8.76393,1.27348 -6.34164,6.18157 1.497058,8.72852 -7.838697,-4.12105 -7.838697,4.12105 1.497058,-8.72852 -6.341639,-6.18157 8.76393,-1.27348 z"
       inkscape:transform-center-y="-1.3884568"
       transform="matrix(1.0902939,0,0,1.0902939,9.446232,-45.310862)"
       inkscape:transform-center-x="-2.4807752e-06" />
    <g
       aria-label="V-Pocket"
       id="text1915"
       style="font-size:9.74155px;font-family:'Script MT Bold';-inkscape-font-specification:'Script MT Bold, ';text-align:center;text-anchor:middle;fill:none;stroke:#ff0000;stroke-width:0.0999998;stroke-linecap:round">
      <path
         d="m 114.84348,69.440256 -2.57808,7.082602 h -1.25575 l -2.57809,-7.082602 h 1.00841 l 2.22134,6.231167 2.22134,-6.231167 z"
         style="font-family:ubuntu;-inkscape-font-specification:ubuntu"
         id="path5863" />
      <path
         d="m 118.42521,73.854396 h -2.96812 v -0.860948 h 2.96812 z"
         style="font-family:ubuntu;-inkscape-font-specification:ubuntu"
         id="path5865" />
      <path
         d="m 124.73724,71.580733 q 0,0.470905 -0.16648,0.875218 -0.16172,0.399555 -0.45663,0.694466 -0.36626,0.366259 -0.86571,0.551767 -0.49944,0.180752 -1.2605,0.180752 h -0.94181 v 2.639922 h -0.94181 v -7.082602 h 1.92167 q 0.63739,0 1.07975,0.109402 0.44237,0.104646 0.78485,0.332963 0.40431,0.271127 0.62311,0.67544 0.22356,0.404312 0.22356,1.022672 z m -0.97986,0.02378 q 0,-0.366259 -0.12843,-0.637386 -0.12843,-0.271127 -0.39004,-0.442366 -0.22832,-0.147455 -0.52323,-0.209291 -0.29015,-0.06659 -0.73727,-0.06659 h -0.9323 v 2.830186 h 0.79435 q 0.5708,0 0.92754,-0.09989 0.35675,-0.104645 0.58031,-0.328206 0.22356,-0.228318 0.31394,-0.480418 0.0951,-0.252101 0.0951,-0.566038 z"
         style="font-family:ubuntu;-inkscape-font-specification:ubuntu"
         id="path5867" />
      <path
         d="m 130.19784,73.868666 q 0,1.298556 -0.66593,2.050101 -0.66592,0.751546 -1.78373,0.751546 -1.12732,0 -1.79324,-0.751546 -0.66117,-0.751545 -0.66117,-2.050101 0,-1.298557 0.66117,-2.050102 0.66592,-0.756302 1.79324,-0.756302 1.11781,0 1.78373,0.756302 0.66593,0.751545 0.66593,2.050102 z m -0.92278,0 q 0,-1.032186 -0.40432,-1.531631 -0.40431,-0.504201 -1.12256,-0.504201 -0.72776,0 -1.13207,0.504201 -0.39956,0.499445 -0.39956,1.531631 0,0.998889 0.40431,1.51736 0.40432,0.513715 1.12732,0.513715 0.71349,0 1.11781,-0.508958 0.40907,-0.513715 0.40907,-1.522117 z"
         style="font-family:ubuntu;-inkscape-font-specification:ubuntu"
         id="path5869" />
      <path
         d="m 135.51098,76.189895 q -0.44712,0.214047 -0.85143,0.332963 -0.39956,0.118915 -0.85144,0.118915 -0.57555,0 -1.05597,-0.166481 -0.48042,-0.171239 -0.82289,-0.513715 -0.34724,-0.342476 -0.5375,-0.865704 -0.19026,-0.523228 -0.19026,-1.222451 0,-1.303313 0.71349,-2.045345 0.71825,-0.742032 1.89313,-0.742032 0.45664,0 0.89424,0.128429 0.44237,0.128428 0.80863,0.313936 v 0.994133 h -0.0476 q -0.40907,-0.318693 -0.84667,-0.489931 -0.43286,-0.171238 -0.84668,-0.171238 -0.76106,0 -1.20343,0.513714 -0.4376,0.508958 -0.4376,1.498334 0,0.960837 0.42809,1.479308 0.43285,0.513715 1.21294,0.513715 0.27113,0 0.55177,-0.07135 0.28064,-0.07135 0.5042,-0.185508 0.19502,-0.09989 0.36626,-0.209291 0.17123,-0.114159 0.27112,-0.195021 h 0.0476 z"
         style="font-family:ubuntu;-inkscape-font-specification:ubuntu"
         id="path5871" />
      <path
         d="m 141.48053,76.522858 h -1.17964 l -2.13096,-2.325986 -0.58031,0.551768 v 1.774218 h -0.89424 v -7.401295 h 0.89424 v 4.747103 l 2.58284,-2.658949 h 1.12732 l -2.46868,2.454414 z"
         style="font-family:ubuntu;-inkscape-font-specification:ubuntu"
         id="path5873" />
      <path
         d="m 146.77465,73.959041 h -3.9147 q 0,0.489932 0.14746,0.856191 0.14745,0.361503 0.40431,0.594577 0.24734,0.228318 0.58506,0.342477 0.34248,0.114159 0.75155,0.114159 0.54225,0 1.08926,-0.214048 0.55177,-0.218804 0.78485,-0.428096 h 0.0476 v 0.975107 q -0.45188,0.190264 -0.92278,0.318693 -0.47091,0.128429 -0.98938,0.128429 -1.32234,0 -2.06437,-0.713493 -0.74203,-0.718249 -0.74203,-2.035832 0,-1.303313 0.70873,-2.069128 0.7135,-0.765815 1.87411,-0.765815 1.075,0 1.6553,0.627873 0.58507,0.627874 0.58507,1.783732 z m -0.87046,-0.684952 q -0.005,-0.70398 -0.35675,-1.089266 -0.34723,-0.385285 -1.06072,-0.385285 -0.71825,0 -1.14635,0.423338 -0.42334,0.423339 -0.48042,1.051213 z"
         style="font-family:ubuntu;-inkscape-font-specification:ubuntu"
         id="path5875" />
      <path
         d="m 150.88912,76.475292 q -0.2521,0.06659 -0.55177,0.109402 -0.29491,0.04281 -0.52798,0.04281 -0.81338,0 -1.23672,-0.437608 -0.42334,-0.437609 -0.42334,-1.403202 v -2.82543 h -0.60409 v -0.751546 h 0.60409 v -1.526874 h 0.89424 v 1.526874 h 1.84557 v 0.751546 h -1.84557 v 2.421117 q 0,0.418583 0.019,0.656413 0.019,0.233075 0.13318,0.437609 0.10465,0.190265 0.2854,0.28064 0.18551,0.08562 0.56128,0.08562 0.21881,0 0.45664,-0.06184 0.23783,-0.06659 0.34247,-0.109403 h 0.0476 z"
         style="font-family:ubuntu;-inkscape-font-specification:ubuntu"
         id="path5877" />
    </g>
    <rect
       style="fill:none;stroke:#ff0000;stroke-width:0.0999998;stroke-linecap:round;stroke-linejoin:miter;stroke-dasharray:none"
       id="rect1917"
       width="28.88595"
       height="28.886055"
       x="95.457321"
       y="86.721176" />
    <path
       sodipodi:type="star"
       style="fill:none;stroke:#ff0000;stroke-width:0.0917184;stroke-linecap:round;stroke-linejoin:miter;stroke-dasharray:none"
       id="path1919"
       inkscape:flatsided="false"
       sodipodi:sides="5"
       sodipodi:cx="55.532257"
       sodipodi:cy="135.72581"
       sodipodi:r1="13.335988"
       sodipodi:r2="6.667994"
       sodipodi:arg1="-1.5707963"
       sodipodi:arg2="-0.9424778"
       inkscape:rounded="0"
       inkscape:randomized="0"
       d="m 55.532257,122.38983 3.919349,7.94146 8.76393,1.27348 -6.34164,6.18157 1.497058,8.72852 -7.838697,-4.12105 -7.838697,4.12105 1.497058,-8.72852 -6.341639,-6.18157 8.76393,-1.27348 z"
       inkscape:transform-center-y="-1.3884568"
       transform="matrix(1.09029,0,0,1.0902939,89.35389,-45.310745)"
       inkscape:transform-center-x="-2.4807752e-06" />
    <g
       aria-label="V-Inlay"
       id="text1927"
       style="font-size:9.74155px;font-family:'Script MT Bold';-inkscape-font-specification:'Script MT Bold, ';text-align:center;text-anchor:middle;fill:none;stroke:#ff0000;stroke-width:0.0999998;stroke-linecap:round">
      <path
         d="m 198.55216,69.440256 -2.57809,7.082602 h -1.25574 l -2.57809,-7.082602 h 1.0084 l 2.22134,6.231167 2.22134,-6.231167 z"
         style="font-family:ubuntu;-inkscape-font-specification:ubuntu"
         id="path5880" />
      <path
         d="m 202.13389,73.854396 h -2.96813 v -0.860948 h 2.96813 z"
         style="font-family:ubuntu;-inkscape-font-specification:ubuntu"
         id="path5882" />
      <path
         d="m 206.1675,76.522858 h -2.79689 v -0.723006 h 0.92754 v -5.63659 h -0.92754 v -0.723006 h 2.79689 v 0.723006 h -0.92754 v 5.63659 h 0.92754 z"
         style="font-family:ubuntu;-inkscape-font-specification:ubuntu"
         id="path5884" />
      <path
         d="m 212.14181,76.522858 h -0.89424 V 73.49765 q 0,-0.36626 -0.0428,-0.684953 -0.0428,-0.32345 -0.15697,-0.504201 -0.11891,-0.199778 -0.34247,-0.294911 -0.22357,-0.09989 -0.58031,-0.09989 -0.36626,0 -0.76582,0.180752 -0.39955,0.180751 -0.76581,0.461392 v 3.967018 h -0.89425 v -5.313141 h 0.89425 v 0.589821 q 0.41858,-0.347233 0.8657,-0.542255 0.44712,-0.195021 0.91803,-0.195021 0.86095,0 1.31282,0.518471 0.45188,0.518471 0.45188,1.493578 z"
         style="font-family:ubuntu;-inkscape-font-specification:ubuntu"
         id="path5886" />
      <path
         d="m 214.76747,76.522858 h -0.89425 v -7.401295 h 0.89425 z"
         style="font-family:ubuntu;-inkscape-font-specification:ubuntu"
         id="path5888" />
      <path
         d="m 220.66567,76.522858 h -0.88949 V 75.95682 q -0.11891,0.08086 -0.32345,0.228318 -0.19977,0.142698 -0.39004,0.228317 -0.22356,0.109403 -0.51371,0.180752 -0.29016,0.07611 -0.6802,0.07611 -0.71825,0 -1.21769,-0.475662 -0.49945,-0.475662 -0.49945,-1.212937 0,-0.60409 0.25686,-0.975106 0.26161,-0.375773 0.74203,-0.589821 0.48518,-0.214048 1.16537,-0.290153 0.6802,-0.07611 1.46028,-0.114159 v -0.137942 q 0,-0.304424 -0.1094,-0.504201 -0.10464,-0.199778 -0.30442,-0.313937 -0.19027,-0.109402 -0.45664,-0.147455 -0.26637,-0.03805 -0.55652,-0.03805 -0.35199,0 -0.78484,0.09513 -0.43285,0.09038 -0.89425,0.266371 h -0.0476 v -0.908514 q 0.26161,-0.07135 0.7563,-0.156968 0.49469,-0.08562 0.97511,-0.08562 0.56128,0 0.9751,0.09513 0.41858,0.09038 0.72301,0.313936 0.29966,0.218805 0.45663,0.566038 0.15697,0.347233 0.15697,0.860947 z m -0.88949,-1.30807 V 73.73548 q -0.40907,0.02378 -0.96559,0.07135 -0.55177,0.04757 -0.87522,0.137942 -0.38528,0.109402 -0.62311,0.342476 -0.23783,0.228318 -0.23783,0.63263 0,0.456635 0.27588,0.689709 0.27588,0.228318 0.84192,0.228318 0.47091,0 0.86095,-0.180752 0.39004,-0.185508 0.723,-0.442365 z"
         style="font-family:ubuntu;-inkscape-font-specification:ubuntu"
         id="path5890" />
      <path
         d="m 226.90635,71.209717 -3.10131,7.272867 h -0.95608 l 0.98937,-2.216584 -2.11669,-5.056283 h 0.97035 l 1.63152,3.938479 1.64579,-3.938479 z"
         style="font-family:ubuntu;-inkscape-font-specification:ubuntu"
         id="path5892" />
    </g>
    <rect
       style="fill:none;stroke:#ff0000;stroke-width:0.0999998;stroke-linecap:round;stroke-linejoin:miter;stroke-dasharray:none"
       id="rect1929"
       width="28.88595"
       height="28.886055"
       x="175.36533"
       y="86.721176" />
    <path
       sodipodi:type="star"
       style="fill:none;stroke:#ff0000;stroke-width:0.0917184;stroke-linecap:round;stroke-linejoin:miter;stroke-dasharray:none"
       id="path1931"
       inkscape:flatsided="false"
       sodipodi:sides="5"
       sodipodi:cx="55.532257"
       sodipodi:cy="135.72581"
       sodipodi:r1="13.335988"
       sodipodi:r2="6.667994"
       sodipodi:arg1="-1.5707963"
       sodipodi:arg2="-0.9424778"
       inkscape:rounded="0"
       inkscape:randomized="0"
       d="m 55.532257,122.38983 3.919349,7.94146 8.76393,1.27348 -6.34164,6.18157 1.497058,8.72852 -7.838697,-4.12105 -7.838697,4.12105 1.497058,-8.72852 -6.341639,-6.18157 8.76393,-1.27348 z"
       inkscape:transform-center-y="-1.3884568"
       transform="matrix(1.09029,0,0,1.0902939,169.26189,-45.310745)"
       inkscape:transform-center-x="-2.4807752e-06" />
    <rect
       style="fill:none;stroke:#ff0000;stroke-width:0.363438;stroke-linecap:round;stroke-linejoin:miter;stroke-dasharray:none"
       id="rect5619"
       width="249.63657"
       height="122.63656"
       x="5.3305602"
       y="2.7058368" />
  </g>
</svg>
